<?xml version="1.0" encoding="UTF-8"?>
<svg version="1.1" xmlns="http://www.w3.org/2000/svg" width="225" height="225">
<path d="M0 0 C74.25 0 148.5 0 225 0 C225 74.25 225 148.5 225 225 C150.75 225 76.5 225 0 225 C0 150.75 0 76.5 0 0 Z " fill="#000000" transform="translate(0,0)"/>
<path d="M0 0 C2.64 0 5.28 0 8 0 C8.33 6.27 8.66 12.54 9 19 C10.98 17.68 12.96 16.36 15 15 C19.98290526 13.33903158 25.32334355 12.88395466 30.2578125 14.94140625 C36.86497586 18.94841217 41.65476091 23.47054818 44 31 C45.20289542 38.14519879 43.63276781 42.89186856 39.65234375 48.8671875 C36.17968688 53.34962403 31.97962111 56.590356 26.30078125 57.37109375 C18.86611744 57.5363085 14.08716322 56.3040548 8 52 C8 53.32 8 54.64 8 56 C5.36 56 2.72 56 0 56 C0 37.52 0 19.04 0 0 Z " fill="#F2F2F2" transform="translate(81,84)"/>
<path d="M0 0 C2.97 0 5.94 0 9 0 C9.00410889 1.13953125 9.00821777 2.2790625 9.01245117 3.453125 C9.03434213 7.71024851 9.08873386 11.96646079 9.15258789 16.22314453 C9.17568143 18.05996927 9.1901432 19.89692479 9.19555664 21.73388672 C9.20490996 24.38591198 9.24603634 27.03590464 9.29296875 29.6875 C9.2890361 30.49928711 9.28510345 31.31107422 9.28105164 32.14746094 C9.43227712 38.1539931 11.13904432 42.35702965 15 47 C18.93991113 48.96995556 23.70507464 48.45307739 28 48 C31.70834543 45.88094547 33.35840641 43.86685498 35 40 C35.32097828 37.98576875 35.32097828 37.98576875 35.31884766 35.87402344 C35.33871735 35.07349548 35.35858704 34.27296753 35.37905884 33.44818115 C35.39061005 32.59387512 35.40216125 31.73956909 35.4140625 30.859375 C35.43342865 29.97719299 35.4527948 29.09501099 35.4727478 28.18609619 C35.53242848 25.37416184 35.57888283 22.5621863 35.625 19.75 C35.66319038 17.84112819 35.70224273 15.93227341 35.7421875 14.0234375 C35.83812058 9.34909704 35.92219416 4.67467591 36 0 C38.97 0 41.94 0 45 0 C45 18.48 45 36.96 45 56 C42.03 56 39.06 56 36 56 C35.67 55.01 35.34 54.02 35 53 C33.9275 53.66 32.855 54.32 31.75 55 C26.26435822 57.69912994 20.99276535 58.04735584 15 57 C8.79648704 54.22547192 4.08813102 49.96538241 0.91455078 43.9387207 C-0.37944339 39.78073675 -0.24661115 35.87154853 -0.1953125 31.54296875 C-0.1924826 30.64000565 -0.18965271 29.73704254 -0.18673706 28.80671692 C-0.17557607 25.93350766 -0.15047897 23.06061445 -0.125 20.1875 C-0.11496493 18.23503056 -0.10584 16.28255621 -0.09765625 14.33007812 C-0.07565008 9.55326434 -0.04114831 4.77668569 0 0 Z " fill="#EDEDED" transform="translate(30,84)"/>
<path d="M0 0 C6.07543087 3.27623235 9.53573707 6.60131653 12.32421875 12.921875 C12.32421875 16.221875 12.32421875 19.521875 12.32421875 22.921875 C1.43421875 22.921875 -9.45578125 22.921875 -20.67578125 22.921875 C-16.66554932 30.5592867 -16.66554932 30.5592867 -12.67578125 32.921875 C-7.13031072 33.60123464 -2.25231695 33.89205082 2.57421875 30.921875 C3.44046875 29.931875 3.44046875 29.931875 4.32421875 28.921875 C6.32421875 29.921875 8.32421875 30.921875 10.32421875 31.921875 C8.58605351 36.34629562 5.50775813 38.5985178 1.51953125 41.015625 C-3.52524328 43.09816537 -9.83248403 42.71063021 -15.02734375 41.26953125 C-20.83659851 38.65648809 -25.09608026 34.26648331 -27.80859375 28.5234375 C-29.62793722 23.0654071 -29.65686693 17.61792936 -27.68359375 12.1953125 C-22.110243 1.77283172 -11.59311011 -4.67109254 0 0 Z " fill="#F2F2F2" transform="translate(156.67578125,99.078125)"/>
<path d="M0 0 C3.99452432 1.93234159 6.3121312 4.94610082 8 9 C8.73285105 13.68683808 8.44402628 17.14366361 6.25 21.375 C3.40700595 24.69182639 1.5777916 26.75909922 -2.83984375 27.43359375 C-11.19398882 27.44412861 -11.19398882 27.44412861 -15.0625 25.3125 C-18.77984934 20.87566369 -20.54613075 18.01338818 -20.28515625 11.98828125 C-19.67465843 7.7315225 -17.72774056 4.89206908 -15.0625 1.625 C-10.18705781 -0.96196933 -5.39152548 -0.8535974 0 0 Z " fill="#060606" transform="translate(109,106)"/>
<path d="M0 0 C2.64 0 5.28 0 8 0 C8.33 0.99 8.66 1.98 9 3 C9.515625 2.505 10.03125 2.01 10.5625 1.5 C13.80680017 -0.49649241 16.26217334 -0.21564385 20 0 C20 2.31 20 4.62 20 7 C18.9275 7.226875 17.855 7.45375 16.75 7.6875 C12.46776696 9.18628156 11.40660502 10.24057546 9 14 C8.36541756 17.07986897 8.36541756 17.07986897 8.390625 20.39453125 C8.35839844 21.59658203 8.32617188 22.79863281 8.29296875 24.03710938 C8.27169922 25.90592773 8.27169922 25.90592773 8.25 27.8125 C8.22035156 29.07771484 8.19070312 30.34292969 8.16015625 31.64648438 C8.08956223 34.76438676 8.0368109 37.88154575 8 41 C5.36 41 2.72 41 0 41 C0 27.47 0 13.94 0 0 Z " fill="#F8F8F8" transform="translate(174,99)"/>
<path d="M0 0 C0.33 0 0.66 0 1 0 C1 9.9 1 19.8 1 30 C-8.9 30 -18.8 30 -29 30 C-29 29.67 -29 29.34 -29 29 C-28.34773437 28.81824219 -27.69546875 28.63648438 -27.0234375 28.44921875 C-19.26103616 26.21666969 -13.59796694 24.05185615 -8 18 C-7.50113281 17.55398437 -7.00226563 17.10796875 -6.48828125 16.6484375 C-4.65180159 14.61433142 -3.86015028 12.67708222 -2.875 10.125 C-2.54242188 9.28195313 -2.20984375 8.43890625 -1.8671875 7.5703125 C-1.01922556 5.05698387 -0.45836017 2.60984669 0 0 Z " fill="#F0F0F0" transform="translate(224,195)"/>
<path d="M0 0 C0.33 0 0.66 0 1 0 C1.18175781 0.65226563 1.36351563 1.30453125 1.55078125 1.9765625 C4.30319753 11.54650219 7.67642435 19.06290408 16 25 C19.32395283 26.3180087 19.32395283 26.3180087 22.8125 27.25 C24.55466797 27.75273437 24.55466797 27.75273437 26.33203125 28.265625 C27.21246094 28.50796875 28.09289062 28.7503125 29 29 C29 29.33 29 29.66 29 30 C19.43 30 9.86 30 0 30 C0 20.1 0 10.2 0 0 Z " fill="#F2F2F2" transform="translate(0,195)"/>
<path d="M0 0 C9.9 0 19.8 0 30 0 C30 9.57 30 19.14 30 29 C28.50706358 26.01412715 27.32629842 23.23610038 26.1875 20.125 C22.52857501 10.97768752 17.0239485 7.33873465 8.375 3.3125 C5.53599492 2.20844247 2.99930692 1.45444044 0 1 C0 0.67 0 0.34 0 0 Z " fill="#F2F2F2" transform="translate(195,0)"/>
<path d="M0 0 C8.91 0 17.82 0 27 0 C24.50378608 1.66414261 22.49266241 2.65677093 19.75 3.75 C12.73345203 6.81259749 6.83065456 11.61622519 3.83203125 18.796875 C3.49558594 19.77140625 3.15914063 20.7459375 2.8125 21.75 C2.29623047 23.22726563 2.29623047 23.22726563 1.76953125 24.734375 C1.51558594 25.48203125 1.26164063 26.2296875 1 27 C0.67 27 0.34 27 0 27 C0 18.09 0 9.18 0 0 Z " fill="#F7F7F7" transform="translate(0,0)"/>
<path d="M0 0 C3.54984689 0.62477305 5.75421716 2.07839705 8.44140625 4.4296875 C10.44140625 7.4296875 10.44140625 7.4296875 10.44140625 10.4296875 C2.52140625 10.4296875 -5.39859375 10.4296875 -13.55859375 10.4296875 C-11.88310875 2.05226252 -8.22448613 -0.41673998 0 0 Z " fill="#090909" transform="translate(150.55859375,105.5703125)"/>
</svg>
